solid "wg"
  facet normal -0.993605256081 -1.68248448063e-07 0.11290962249
    outer loop
      vertex -0.249999970198 -0.20000000298 -0.110000379384
      vertex -0.224999979138 -0.20000000298 0.109999783337
      vertex -0.249999970198 0.20000000298 -0.109999783337
    endloop
  endfacet
  facet normal -0.993605256081 -8.41243377181e-08 0.112909771502
    outer loop
      vertex -0.249999970198 0.20000000298 -0.109999783337
      vertex -0.224999979138 -0.20000000298 0.109999783337
      vertex -0.224999979138 0.20000000298 0.11000008136
    endloop
  endfacet
  facet normal -1.35591431873e-22 1.49011623307e-06 -1
    outer loop
      vertex -0.249999970198 0.20000000298 -0.109999783337
      vertex 0.249999970198 -0.20000000298 -0.110000379384
      vertex -0.249999970198 -0.20000000298 -0.110000379384
    endloop
  endfacet
  facet normal 0 1.49011623307e-06 -1
    outer loop
      vertex 0.249999970198 0.20000000298 -0.109999783337
      vertex 0.249999970198 -0.20000000298 -0.110000379384
      vertex -0.249999970198 0.20000000298 -0.109999783337
    endloop
  endfacet
  facet normal 0 1 0
    outer loop
      vertex -0.224999979138 0.20000000298 0.11000008136
      vertex 0.249999970198 0.20000000298 -0.109999783337
      vertex -0.249999970198 0.20000000298 -0.109999783337
    endloop
  endfacet
  facet normal 0 1 0
    outer loop
      vertex 0.224999979138 0.20000000298 0.11000008136
      vertex 0.249999970198 0.20000000298 -0.109999783337
      vertex -0.224999979138 0.20000000298 0.11000008136
    endloop
  endfacet
  facet normal 0 -1 -0
    outer loop
      vertex -0.224999979138 -0.20000000298 0.109999783337
      vertex -0.249999970198 -0.20000000298 -0.110000379384
      vertex 0.249999970198 -0.20000000298 -0.110000379384
    endloop
  endfacet
  facet normal -0 -1 -0
    outer loop
      vertex 0.224999979138 -0.20000000298 0.109999783337
      vertex -0.224999979138 -0.20000000298 0.109999783337
      vertex 0.249999970198 -0.20000000298 -0.110000379384
    endloop
  endfacet
  facet normal 0 -7.45058116536e-07 1
    outer loop
      vertex -0.224999979138 -0.20000000298 0.109999783337
      vertex 0.224999979138 -0.20000000298 0.109999783337
      vertex -0.224999979138 0.20000000298 0.11000008136
    endloop
  endfacet
  facet normal 0 -7.45058116536e-07 1
    outer loop
      vertex -0.224999979138 0.20000000298 0.11000008136
      vertex 0.224999979138 -0.20000000298 0.109999783337
      vertex 0.224999979138 0.20000000298 0.11000008136
    endloop
  endfacet
  facet normal 0.993605256081 -8.41242240313e-08 0.11290962249
    outer loop
      vertex 0.224999979138 -0.20000000298 0.109999783337
      vertex 0.249999970198 -0.20000000298 -0.110000379384
      vertex 0.224999979138 0.20000000298 0.11000008136
    endloop
  endfacet
  facet normal 0.993605256081 -1.68248675436e-07 0.112909771502
    outer loop
      vertex 0.224999979138 0.20000000298 0.11000008136
      vertex 0.249999970198 -0.20000000298 -0.110000379384
      vertex 0.249999970198 0.20000000298 -0.109999783337
    endloop
  endfacet
endsolid "wg"
